<?xml version="1.0" encoding="UTF-8"?>
<svg id="Layer_2" data-name="Layer 2" xmlns="http://www.w3.org/2000/svg" viewBox="0 0 199.85 199.85">
  <g id="Layer_1-2" data-name="Layer 1">
    <g>
      <circle cx="99.93" cy="99.93" r="99.93" style="stroke-width: 0px;"/>
      <g>
        <path d="m73.62,53.61c1.98,1.33,4.37,1.99,7.19,1.99s5.16-.66,7.15-1.99c2-1.32,3-3.72,3-7.18s-1-5.9-3-7.18c-2-1.28-4.38-1.93-7.15-1.93s-5.21.64-7.19,1.93-2.96,3.68-2.96,7.18.99,5.86,2.96,7.18Z" style="fill: #fff; stroke-width: 0px;"/>
        <path d="m71.45,64.1v73c0,4.12-.88,6.88-2.63,8.28-1.75,1.41-3.89,2.11-6.42,2.11-1.67,0-3.17-.09-4.49-.28-1.32-.18-2.74-.48-4.25-.89v14.67c1.51.41,3.4.76,5.69,1.07,2.28.31,4.48.46,6.6.46,5.83,0,10.52-1.02,14.06-3.06,3.55-2.04,6.11-4.78,7.7-8.22,1.59-3.45,2.38-7.25,2.38-11.4l-.06-61.75h17.64v32.96c0,5.87.93,10.45,2.78,13.73,1.85,3.28,4.4,5.59,7.64,6.91,3.24,1.32,6.9,1.99,10.97,1.99,3.51,0,6.74-.3,9.69-.89,2.96-.59,5.43-1.33,7.43-2.23v-13.88c-1.92.61-3.84,1.12-5.78,1.53-1.94.41-3.92.61-5.96.61-2.45,0-4.41-.64-5.9-1.93-1.49-1.28-2.23-3.23-2.23-5.84v-32.96h19.14v-14h-19.14v-14.55h-11.92l-3.02,8.1c-1.49,4-4.73,7.11-8.78,8.44h0c-8.16,2.68-16.97,2.68-25.13,0l-6.02-1.98Z" style="fill: #fff; stroke-width: 0px;"/>
      </g>
    </g>
  </g>
</svg>